<svg width="178" height="52" viewBox="0 0 178 52" fill="none" xmlns="http://www.w3.org/2000/svg">
<rect width="178" height="52" rx="4" fill="#4CAF4F"/>
<path d="M41.3409 24.0398C41.2311 23.6951 41.0833 23.3864 40.8977 23.1136C40.7159 22.8371 40.4981 22.6023 40.2443 22.4091C39.9905 22.2121 39.7008 22.0625 39.375 21.9602C39.053 21.858 38.6989 21.8068 38.3125 21.8068C37.6572 21.8068 37.0663 21.9754 36.5398 22.3125C36.0133 22.6496 35.5966 23.1439 35.2898 23.7955C34.9867 24.4432 34.8352 25.2367 34.8352 26.1761C34.8352 27.1193 34.9886 27.9167 35.2955 28.5682C35.6023 29.2197 36.0227 29.714 36.5568 30.0511C37.0909 30.3883 37.6989 30.5568 38.3807 30.5568C39.0133 30.5568 39.5644 30.428 40.0341 30.1705C40.5076 29.9129 40.8731 29.5492 41.1307 29.0795C41.392 28.6061 41.5227 28.0492 41.5227 27.4091L41.9773 27.4943H38.6477V26.0455H43.2216V27.3693C43.2216 28.3466 43.0133 29.1951 42.5966 29.9148C42.1837 30.6307 41.6117 31.1837 40.8807 31.5739C40.1534 31.964 39.3201 32.1591 38.3807 32.1591C37.3277 32.1591 36.4034 31.9167 35.608 31.4318C34.8163 30.947 34.1989 30.2595 33.7557 29.3693C33.3125 28.4754 33.0909 27.4148 33.0909 26.1875C33.0909 25.2595 33.2197 24.4261 33.4773 23.6875C33.7348 22.9489 34.0966 22.322 34.5625 21.8068C35.0322 21.2879 35.5833 20.892 36.2159 20.6193C36.8523 20.3428 37.5473 20.2045 38.3011 20.2045C38.9299 20.2045 39.5152 20.2973 40.0568 20.483C40.6023 20.6686 41.0871 20.9318 41.5114 21.2727C41.9394 21.6136 42.2936 22.0189 42.5739 22.4886C42.8542 22.9545 43.0436 23.4716 43.142 24.0398H41.3409ZM49.0753 32.1761C48.2154 32.1761 47.4749 31.9924 46.8537 31.625C46.2363 31.2538 45.759 30.733 45.4219 30.0625C45.0885 29.3883 44.9219 28.5985 44.9219 27.6932C44.9219 26.7992 45.0885 26.0114 45.4219 25.3295C45.759 24.6477 46.2287 24.1155 46.831 23.733C47.437 23.3504 48.1454 23.1591 48.956 23.1591C49.4484 23.1591 49.9257 23.2405 50.3878 23.4034C50.8499 23.5663 51.2647 23.822 51.6321 24.1705C51.9995 24.5189 52.2893 24.9716 52.5014 25.5284C52.7135 26.0814 52.8196 26.7538 52.8196 27.5455V28.1477H45.8821V26.875H51.1548C51.1548 26.428 51.0639 26.0322 50.8821 25.6875C50.7003 25.339 50.4446 25.0644 50.1151 24.8636C49.7893 24.6629 49.4067 24.5625 48.9673 24.5625C48.4901 24.5625 48.0734 24.6799 47.7173 24.9148C47.3651 25.1458 47.0923 25.4489 46.8991 25.8239C46.7098 26.1951 46.6151 26.5985 46.6151 27.0341V28.0284C46.6151 28.6117 46.7173 29.108 46.9219 29.517C47.1302 29.9261 47.42 30.2386 47.7912 30.4545C48.1624 30.6667 48.5961 30.7727 49.0923 30.7727C49.4143 30.7727 49.7079 30.7273 49.973 30.6364C50.2382 30.5417 50.4673 30.4015 50.6605 30.2159C50.8537 30.0303 51.0014 29.8011 51.1037 29.5284L52.7116 29.8182C52.5829 30.2917 52.3518 30.7064 52.0185 31.0625C51.6889 31.4148 51.2741 31.6894 50.7741 31.8864C50.2779 32.0795 49.7116 32.1761 49.0753 32.1761ZM58.7784 23.2727V24.6364H54.0114V23.2727H58.7784ZM55.2898 21.1818H56.9886V29.4375C56.9886 29.767 57.0379 30.0152 57.1364 30.1818C57.2348 30.3447 57.3617 30.4564 57.517 30.517C57.6761 30.5739 57.8485 30.6023 58.0341 30.6023C58.1705 30.6023 58.2898 30.5928 58.392 30.5739C58.4943 30.5549 58.5739 30.5398 58.6307 30.5284L58.9375 31.9318C58.839 31.9697 58.6989 32.0076 58.517 32.0455C58.3352 32.0871 58.108 32.1098 57.8352 32.1136C57.3883 32.1212 56.9716 32.0417 56.5852 31.875C56.1989 31.7083 55.8864 31.4508 55.6477 31.1023C55.4091 30.7538 55.2898 30.3163 55.2898 29.7898V21.1818ZM67.4318 32.1932C66.8788 32.1932 66.3788 32.0909 65.9318 31.8864C65.4848 31.678 65.1307 31.3769 64.8693 30.983C64.6117 30.589 64.483 30.1061 64.483 29.5341C64.483 29.0417 64.5777 28.6364 64.767 28.3182C64.9564 28 65.2121 27.7481 65.5341 27.5625C65.8561 27.3769 66.2159 27.2367 66.6136 27.142C67.0114 27.0473 67.4167 26.9754 67.8295 26.9261C68.3523 26.8655 68.7765 26.8163 69.1023 26.7784C69.428 26.7367 69.6648 26.6705 69.8125 26.5795C69.9602 26.4886 70.0341 26.3409 70.0341 26.1364V26.0966C70.0341 25.6004 69.8939 25.2159 69.6136 24.9432C69.3371 24.6705 68.9242 24.5341 68.375 24.5341C67.803 24.5341 67.3523 24.661 67.0227 24.9148C66.697 25.1648 66.4716 25.4432 66.3466 25.75L64.75 25.3864C64.9394 24.8561 65.2159 24.428 65.5795 24.1023C65.947 23.7727 66.3693 23.5341 66.8466 23.3864C67.3239 23.2348 67.8258 23.1591 68.3523 23.1591C68.7008 23.1591 69.0701 23.2008 69.4602 23.2841C69.8542 23.3636 70.2216 23.5114 70.5625 23.7273C70.9072 23.9432 71.1894 24.2519 71.4091 24.6534C71.6288 25.0511 71.7386 25.5682 71.7386 26.2045V32H70.0795V30.8068H70.0114C69.9015 31.0265 69.7367 31.2424 69.517 31.4545C69.2973 31.6667 69.0152 31.8428 68.6705 31.983C68.3258 32.1231 67.9129 32.1932 67.4318 32.1932ZM67.8011 30.8295C68.2708 30.8295 68.6723 30.7367 69.0057 30.5511C69.3428 30.3655 69.5985 30.1231 69.7727 29.8239C69.9508 29.5208 70.0398 29.197 70.0398 28.8523V27.7273C69.9792 27.7879 69.8617 27.8447 69.6875 27.8977C69.517 27.947 69.322 27.9905 69.1023 28.0284C68.8826 28.0625 68.6686 28.0947 68.4602 28.125C68.2519 28.1515 68.0777 28.1742 67.9375 28.1932C67.608 28.2348 67.3068 28.3049 67.0341 28.4034C66.7652 28.5019 66.5492 28.6439 66.3864 28.8295C66.2273 29.0114 66.1477 29.2538 66.1477 29.5568C66.1477 29.9773 66.303 30.2955 66.6136 30.5114C66.9242 30.7235 67.3201 30.8295 67.8011 30.8295ZM82.1392 32H78.3722V20.3636H82.2585C83.3987 20.3636 84.3778 20.5966 85.196 21.0625C86.0142 21.5246 86.6411 22.1894 87.0767 23.0568C87.5161 23.9205 87.7358 24.9564 87.7358 26.1648C87.7358 27.3769 87.5142 28.4186 87.071 29.2898C86.6316 30.161 85.9953 30.8314 85.1619 31.3011C84.3286 31.767 83.321 32 82.1392 32ZM80.1278 30.4659H82.0426C82.929 30.4659 83.6657 30.2992 84.2528 29.9659C84.84 29.6288 85.2794 29.142 85.571 28.5057C85.8627 27.8655 86.0085 27.0852 86.0085 26.1648C86.0085 25.2519 85.8627 24.4773 85.571 23.8409C85.2831 23.2045 84.8532 22.7216 84.2812 22.392C83.7093 22.0625 82.9991 21.8977 82.1506 21.8977H80.1278V30.4659ZM93.544 32.1761C92.6842 32.1761 91.9437 31.9924 91.3224 31.625C90.705 31.2538 90.2277 30.733 89.8906 30.0625C89.5573 29.3883 89.3906 28.5985 89.3906 27.6932C89.3906 26.7992 89.5573 26.0114 89.8906 25.3295C90.2277 24.6477 90.6974 24.1155 91.2997 23.733C91.9058 23.3504 92.6141 23.1591 93.4247 23.1591C93.9171 23.1591 94.3944 23.2405 94.8565 23.4034C95.3187 23.5663 95.7334 23.822 96.1009 24.1705C96.4683 24.5189 96.758 24.9716 96.9702 25.5284C97.1823 26.0814 97.2884 26.7538 97.2884 27.5455V28.1477H90.3509V26.875H95.6236C95.6236 26.428 95.5327 26.0322 95.3509 25.6875C95.169 25.339 94.9134 25.0644 94.5838 24.8636C94.258 24.6629 93.8755 24.5625 93.4361 24.5625C92.9588 24.5625 92.5421 24.6799 92.1861 24.9148C91.8338 25.1458 91.5611 25.4489 91.3679 25.8239C91.1785 26.1951 91.0838 26.5985 91.0838 27.0341V28.0284C91.0838 28.6117 91.1861 29.108 91.3906 29.517C91.599 29.9261 91.8887 30.2386 92.2599 30.4545C92.6312 30.6667 93.0649 30.7727 93.5611 30.7727C93.883 30.7727 94.1766 30.7273 94.4418 30.6364C94.7069 30.5417 94.9361 30.4015 95.1293 30.2159C95.3224 30.0303 95.4702 29.8011 95.5724 29.5284L97.1804 29.8182C97.0516 30.2917 96.8205 30.7064 96.4872 31.0625C96.1577 31.4148 95.7429 31.6894 95.2429 31.8864C94.7467 32.0795 94.1804 32.1761 93.544 32.1761ZM99.1733 32V23.2727H100.804V24.6932H100.912C101.094 24.2121 101.391 23.8371 101.804 23.5682C102.217 23.2955 102.711 23.1591 103.287 23.1591C103.87 23.1591 104.359 23.2955 104.753 23.5682C105.151 23.8409 105.444 24.2159 105.634 24.6932H105.724C105.933 24.2273 106.264 23.8561 106.719 23.5795C107.173 23.2992 107.715 23.1591 108.344 23.1591C109.135 23.1591 109.781 23.4072 110.281 23.9034C110.785 24.3996 111.037 25.1477 111.037 26.1477V32H109.338V26.3068C109.338 25.7159 109.177 25.2879 108.855 25.0227C108.533 24.7576 108.149 24.625 107.702 24.625C107.149 24.625 106.719 24.7955 106.412 25.1364C106.105 25.4735 105.952 25.9072 105.952 26.4375V32H104.259V26.1989C104.259 25.7254 104.111 25.3447 103.815 25.0568C103.52 24.7689 103.135 24.625 102.662 24.625C102.34 24.625 102.043 24.7102 101.77 24.8807C101.501 25.0473 101.283 25.2803 101.116 25.5795C100.954 25.8788 100.872 26.2254 100.872 26.6193V32H99.1733ZM116.99 32.1761C116.172 32.1761 115.458 31.9886 114.848 31.6136C114.238 31.2386 113.765 30.714 113.428 30.0398C113.09 29.3655 112.922 28.5777 112.922 27.6761C112.922 26.7708 113.09 25.9792 113.428 25.3011C113.765 24.6231 114.238 24.0966 114.848 23.7216C115.458 23.3466 116.172 23.1591 116.99 23.1591C117.808 23.1591 118.522 23.3466 119.132 23.7216C119.742 24.0966 120.215 24.6231 120.553 25.3011C120.89 25.9792 121.058 26.7708 121.058 27.6761C121.058 28.5777 120.89 29.3655 120.553 30.0398C120.215 30.714 119.742 31.2386 119.132 31.6136C118.522 31.9886 117.808 32.1761 116.99 32.1761ZM116.996 30.75C117.526 30.75 117.965 30.6098 118.314 30.3295C118.662 30.0492 118.92 29.6761 119.087 29.2102C119.257 28.7443 119.342 28.2311 119.342 27.6705C119.342 27.1136 119.257 26.6023 119.087 26.1364C118.92 25.6667 118.662 25.2898 118.314 25.0057C117.965 24.7216 117.526 24.5795 116.996 24.5795C116.462 24.5795 116.018 24.7216 115.666 25.0057C115.318 25.2898 115.058 25.6667 114.888 26.1364C114.721 26.6023 114.638 27.1136 114.638 27.6705C114.638 28.2311 114.721 28.7443 114.888 29.2102C115.058 29.6761 115.318 30.0492 115.666 30.3295C116.018 30.6098 116.462 30.75 116.996 30.75Z" fill="white"/>
<path d="M141.25 29.0001L143.72 26.5304C144.013 26.2375 144.013 25.7626 143.72 25.4697L141.25 23M143.5 26L132.5 26" stroke="white" stroke-width="1.1" stroke-linecap="round"/>
</svg>
